<mxfile host="app.diagrams.net" agent="Mozilla/5.0 (X11; Linux x86_64; rv:134.0) Gecko/20100101 Firefox/134.0" version="26.0.16">
  <diagram name="PÃ¡gina-1" id="Pu0nokxnrZLM9DPjROEs">
    <mxGraphModel dx="1034" dy="1150" grid="1" gridSize="10" guides="1" tooltips="1" connect="1" arrows="1" fold="1" page="1" pageScale="1" pageWidth="827" pageHeight="1169" math="0" shadow="0">
      <root>
        <mxCell id="0" />
        <mxCell id="1" parent="0" />
        <mxCell id="TkE53SrEO5YB9DNX2DDW-38" style="edgeStyle=orthogonalEdgeStyle;rounded=0;orthogonalLoop=1;jettySize=auto;html=1;entryX=1;entryY=0.5;entryDx=0;entryDy=0;" parent="1" source="TkE53SrEO5YB9DNX2DDW-7" target="TkE53SrEO5YB9DNX2DDW-18" edge="1">
          <mxGeometry relative="1" as="geometry">
            <mxPoint x="210" y="380" as="targetPoint" />
            <Array as="points">
              <mxPoint x="210" y="375" />
              <mxPoint x="210" y="380" />
            </Array>
          </mxGeometry>
        </mxCell>
        <mxCell id="TkE53SrEO5YB9DNX2DDW-50" value="STDIN" style="edgeStyle=orthogonalEdgeStyle;rounded=0;orthogonalLoop=1;jettySize=auto;html=1;entryX=0;entryY=0.5;entryDx=0;entryDy=0;exitX=0.5;exitY=0;exitDx=0;exitDy=0;exitPerimeter=0;" parent="1" source="TkE53SrEO5YB9DNX2DDW-7" target="TkE53SrEO5YB9DNX2DDW-20" edge="1">
          <mxGeometry relative="1" as="geometry">
            <mxPoint x="300" y="710" as="targetPoint" />
            <Array as="points">
              <mxPoint x="580" y="370" />
              <mxPoint x="560" y="370" />
              <mxPoint x="560" y="310" />
              <mxPoint x="310" y="310" />
              <mxPoint x="310" y="630" />
            </Array>
          </mxGeometry>
        </mxCell>
        <mxCell id="TkE53SrEO5YB9DNX2DDW-7" value="pipe0 / infile&lt;div&gt;fd = 5&lt;/div&gt;" style="shape=cylinder3;whiteSpace=wrap;html=1;boundedLbl=1;backgroundOutline=1;size=15;direction=north;fillColor=#60a917;fontColor=#ffffff;strokeColor=#2D7600;" parent="1" vertex="1">
          <mxGeometry x="580" y="360" width="170" height="30" as="geometry" />
        </mxCell>
        <mxCell id="TkE53SrEO5YB9DNX2DDW-24" value="STDIN" style="edgeStyle=orthogonalEdgeStyle;rounded=0;orthogonalLoop=1;jettySize=auto;html=1;entryX=0;entryY=0.5;entryDx=0;entryDy=0;" parent="1" source="TkE53SrEO5YB9DNX2DDW-8" target="TkE53SrEO5YB9DNX2DDW-19" edge="1">
          <mxGeometry relative="1" as="geometry">
            <Array as="points">
              <mxPoint x="220" y="280" />
              <mxPoint x="220" y="500" />
            </Array>
          </mxGeometry>
        </mxCell>
        <mxCell id="cVPtAOOOHcKWrL9LYY-s-7" value="STDIN&lt;div&gt;&lt;br&gt;&lt;/div&gt;" style="edgeStyle=orthogonalEdgeStyle;rounded=0;orthogonalLoop=1;jettySize=auto;html=1;entryX=0;entryY=0.5;entryDx=0;entryDy=0;" parent="1" target="TkE53SrEO5YB9DNX2DDW-21" edge="1">
          <mxGeometry relative="1" as="geometry">
            <Array as="points">
              <mxPoint x="580" y="230" />
              <mxPoint x="260" y="230" />
              <mxPoint x="260" y="810" />
            </Array>
            <mxPoint x="580" y="370" as="sourcePoint" />
          </mxGeometry>
        </mxCell>
        <mxCell id="TkE53SrEO5YB9DNX2DDW-8" value="infille&lt;div&gt;fd = 3&lt;/div&gt;" style="shape=cube;whiteSpace=wrap;html=1;boundedLbl=1;backgroundOutline=1;darkOpacity=0.05;darkOpacity2=0.1;" parent="1" vertex="1">
          <mxGeometry x="10" y="30" width="120" height="80" as="geometry" />
        </mxCell>
        <mxCell id="TkE53SrEO5YB9DNX2DDW-9" value="outfile&lt;div&gt;fd = 4&lt;/div&gt;" style="shape=cube;whiteSpace=wrap;html=1;boundedLbl=1;backgroundOutline=1;darkOpacity=0.05;darkOpacity2=0.1;" parent="1" vertex="1">
          <mxGeometry x="630" y="860" width="120" height="80" as="geometry" />
        </mxCell>
        <mxCell id="TkE53SrEO5YB9DNX2DDW-49" style="edgeStyle=orthogonalEdgeStyle;rounded=0;orthogonalLoop=1;jettySize=auto;html=1;entryX=0.5;entryY=0;entryDx=0;entryDy=0;entryPerimeter=0;exitX=0.5;exitY=0;exitDx=0;exitDy=0;exitPerimeter=0;" parent="1" source="TkE53SrEO5YB9DNX2DDW-17" target="TkE53SrEO5YB9DNX2DDW-22" edge="1">
          <mxGeometry relative="1" as="geometry">
            <mxPoint x="540" y="460" as="targetPoint" />
          </mxGeometry>
        </mxCell>
        <mxCell id="TkE53SrEO5YB9DNX2DDW-17" value="pipe1&lt;div&gt;fd = 6&lt;/div&gt;" style="shape=cylinder3;whiteSpace=wrap;html=1;boundedLbl=1;backgroundOutline=1;size=15;direction=south;fillColor=light-dark(#A20025,#FF3333);fontColor=#ffffff;strokeColor=#6F0000;" parent="1" vertex="1">
          <mxGeometry x="575" y="390" width="175" height="30" as="geometry" />
        </mxCell>
        <mxCell id="TkE53SrEO5YB9DNX2DDW-18" value="&lt;span style=&quot;color: rgb(0, 0, 0); font-family: Helvetica; font-size: 12px; font-style: normal; font-variant-ligatures: normal; font-variant-caps: normal; font-weight: 400; letter-spacing: normal; orphans: 2; text-align: center; text-indent: 0px; text-transform: none; widows: 2; word-spacing: 0px; -webkit-text-stroke-width: 0px; white-space: normal; background-color: rgb(251, 251, 251); text-decoration-thickness: initial; text-decoration-style: initial; text-decoration-color: initial; display: inline !important; float: none;&quot;&gt;parent PID 8963&lt;/span&gt;" style="shape=process;whiteSpace=wrap;html=1;backgroundOutline=1;" parent="1" vertex="1">
          <mxGeometry x="30" y="350" width="120" height="60" as="geometry" />
        </mxCell>
        <mxCell id="TkE53SrEO5YB9DNX2DDW-19" value="&lt;span style=&quot;color: rgb(0, 0, 0); font-family: Helvetica; font-size: 12px; font-style: normal; font-variant-ligatures: normal; font-variant-caps: normal; font-weight: 400; letter-spacing: normal; orphans: 2; text-align: center; text-indent: 0px; text-transform: none; widows: 2; word-spacing: 0px; -webkit-text-stroke-width: 0px; white-space: normal; background-color: rgb(251, 251, 251); text-decoration-thickness: initial; text-decoration-style: initial; text-decoration-color: initial; display: inline !important; float: none;&quot;&gt;child 1 PID 8964&lt;/span&gt;" style="shape=process;whiteSpace=wrap;html=1;backgroundOutline=1;" parent="1" vertex="1">
          <mxGeometry x="349" y="470" width="120" height="60" as="geometry" />
        </mxCell>
        <mxCell id="TkE53SrEO5YB9DNX2DDW-20" value="&lt;span style=&quot;color: rgb(0, 0, 0); font-family: Helvetica; font-size: 12px; font-style: normal; font-variant-ligatures: normal; font-variant-caps: normal; font-weight: 400; letter-spacing: normal; orphans: 2; text-align: center; text-indent: 0px; text-transform: none; widows: 2; word-spacing: 0px; -webkit-text-stroke-width: 0px; white-space: normal; background-color: rgb(251, 251, 251); text-decoration-thickness: initial; text-decoration-style: initial; text-decoration-color: initial; display: inline !important; float: none;&quot;&gt;child 2 PID 8965&lt;/span&gt;" style="shape=process;whiteSpace=wrap;html=1;backgroundOutline=1;" parent="1" vertex="1">
          <mxGeometry x="349" y="600" width="120" height="60" as="geometry" />
        </mxCell>
        <mxCell id="TkE53SrEO5YB9DNX2DDW-21" value="&lt;span style=&quot;color: rgb(0, 0, 0); font-family: Helvetica; font-size: 12px; font-style: normal; font-variant-ligatures: normal; font-variant-caps: normal; font-weight: 400; letter-spacing: normal; orphans: 2; text-align: center; text-indent: 0px; text-transform: none; widows: 2; word-spacing: 0px; -webkit-text-stroke-width: 0px; white-space: normal; background-color: rgb(251, 251, 251); text-decoration-thickness: initial; text-decoration-style: initial; text-decoration-color: initial; display: inline !important; float: none;&quot;&gt;final child PID 8966&lt;/span&gt;" style="shape=process;whiteSpace=wrap;html=1;backgroundOutline=1;" parent="1" vertex="1">
          <mxGeometry x="349" y="780" width="120" height="60" as="geometry" />
        </mxCell>
        <mxCell id="TkE53SrEO5YB9DNX2DDW-22" value="pipe0&lt;div&gt;fd = 5&lt;/div&gt;" style="shape=cylinder3;whiteSpace=wrap;html=1;boundedLbl=1;backgroundOutline=1;size=15;direction=north;fillColor=light-dark(#A20025,#FF3333);fontColor=#ffffff;strokeColor=#6F0000;" parent="1" vertex="1">
          <mxGeometry x="580" y="470" width="170" height="30" as="geometry" />
        </mxCell>
        <mxCell id="TkE53SrEO5YB9DNX2DDW-46" style="edgeStyle=orthogonalEdgeStyle;rounded=0;orthogonalLoop=1;jettySize=auto;html=1;entryX=0.5;entryY=1;entryDx=0;entryDy=0;entryPerimeter=0;" parent="1" source="TkE53SrEO5YB9DNX2DDW-23" target="TkE53SrEO5YB9DNX2DDW-7" edge="1">
          <mxGeometry relative="1" as="geometry">
            <mxPoint x="800" y="525" as="targetPoint" />
            <Array as="points">
              <mxPoint x="800" y="525" />
              <mxPoint x="800" y="375" />
            </Array>
          </mxGeometry>
        </mxCell>
        <mxCell id="TkE53SrEO5YB9DNX2DDW-23" value="pipe1&lt;div&gt;fd = 6&lt;/div&gt;" style="shape=cylinder3;whiteSpace=wrap;html=1;boundedLbl=1;backgroundOutline=1;size=15;direction=south;fillColor=#60a917;fontColor=#ffffff;strokeColor=#2D7600;" parent="1" vertex="1">
          <mxGeometry x="575" y="500" width="175" height="30" as="geometry" />
        </mxCell>
        <mxCell id="TkE53SrEO5YB9DNX2DDW-25" style="edgeStyle=orthogonalEdgeStyle;rounded=0;orthogonalLoop=1;jettySize=auto;html=1;entryX=0.5;entryY=1;entryDx=0;entryDy=0;entryPerimeter=0;" parent="1" source="TkE53SrEO5YB9DNX2DDW-19" target="TkE53SrEO5YB9DNX2DDW-23" edge="1">
          <mxGeometry relative="1" as="geometry" />
        </mxCell>
        <mxCell id="TkE53SrEO5YB9DNX2DDW-45" value="STDOUT" style="edgeLabel;html=1;align=center;verticalAlign=middle;resizable=0;points=[];" parent="TkE53SrEO5YB9DNX2DDW-25" vertex="1" connectable="0">
          <mxGeometry x="-0.2608" y="-1" relative="1" as="geometry">
            <mxPoint as="offset" />
          </mxGeometry>
        </mxCell>
        <mxCell id="TkE53SrEO5YB9DNX2DDW-31" value="STDOUT&lt;div&gt;&lt;br&gt;&lt;/div&gt;" style="edgeStyle=orthogonalEdgeStyle;rounded=0;orthogonalLoop=1;jettySize=auto;html=1;entryX=0;entryY=0;entryDx=0;entryDy=30;entryPerimeter=0;" parent="1" source="TkE53SrEO5YB9DNX2DDW-21" target="TkE53SrEO5YB9DNX2DDW-9" edge="1">
          <mxGeometry relative="1" as="geometry" />
        </mxCell>
        <mxCell id="cVPtAOOOHcKWrL9LYY-s-1" value="pipe0&lt;div&gt;fd = 5&lt;br&gt;&lt;/div&gt;" style="shape=cylinder3;whiteSpace=wrap;html=1;boundedLbl=1;backgroundOutline=1;size=15;direction=north;fillColor=light-dark(#A20025,#FF3333);" parent="1" vertex="1">
          <mxGeometry x="580" y="580" width="170" height="30" as="geometry" />
        </mxCell>
        <mxCell id="cVPtAOOOHcKWrL9LYY-s-8" style="edgeStyle=orthogonalEdgeStyle;rounded=0;orthogonalLoop=1;jettySize=auto;html=1;" parent="1" source="cVPtAOOOHcKWrL9LYY-s-2" edge="1">
          <mxGeometry relative="1" as="geometry">
            <mxPoint x="800" y="520" as="targetPoint" />
          </mxGeometry>
        </mxCell>
        <mxCell id="cVPtAOOOHcKWrL9LYY-s-2" value="pipe1&lt;div&gt;fd = 6&lt;/div&gt;" style="shape=cylinder3;whiteSpace=wrap;html=1;boundedLbl=1;backgroundOutline=1;size=15;direction=south;fillColor=#60a917;fontColor=#ffffff;strokeColor=#2D7600;" parent="1" vertex="1">
          <mxGeometry x="575" y="610" width="175" height="30" as="geometry" />
        </mxCell>
        <mxCell id="cVPtAOOOHcKWrL9LYY-s-3" style="edgeStyle=orthogonalEdgeStyle;rounded=0;orthogonalLoop=1;jettySize=auto;html=1;entryX=0.5;entryY=1;entryDx=0;entryDy=0;entryPerimeter=0;exitX=1;exitY=0.5;exitDx=0;exitDy=0;" parent="1" source="TkE53SrEO5YB9DNX2DDW-20" target="cVPtAOOOHcKWrL9LYY-s-2" edge="1">
          <mxGeometry relative="1" as="geometry">
            <mxPoint x="480" y="610" as="sourcePoint" />
            <mxPoint x="566" y="625" as="targetPoint" />
          </mxGeometry>
        </mxCell>
        <mxCell id="cVPtAOOOHcKWrL9LYY-s-4" value="STDOUT" style="edgeLabel;html=1;align=center;verticalAlign=middle;resizable=0;points=[];" parent="cVPtAOOOHcKWrL9LYY-s-3" vertex="1" connectable="0">
          <mxGeometry x="-0.2608" y="-1" relative="1" as="geometry">
            <mxPoint as="offset" />
          </mxGeometry>
        </mxCell>
        <mxCell id="CRQ6YsXnufIw0pY0c4kj-1" value="&lt;div&gt;before iteration&lt;/div&gt;" style="text;html=1;align=center;verticalAlign=middle;resizable=0;points=[];autosize=1;strokeColor=none;fillColor=none;" vertex="1" parent="1">
          <mxGeometry x="615" y="330" width="100" height="30" as="geometry" />
        </mxCell>
        <mxCell id="CRQ6YsXnufIw0pY0c4kj-2" value="first iteration" style="text;html=1;align=center;verticalAlign=middle;resizable=0;points=[];autosize=1;strokeColor=none;fillColor=none;" vertex="1" parent="1">
          <mxGeometry x="617.5" y="450" width="90" height="30" as="geometry" />
        </mxCell>
        <mxCell id="CRQ6YsXnufIw0pY0c4kj-4" value="&lt;div&gt;last iteration&lt;/div&gt;" style="text;html=1;align=center;verticalAlign=middle;resizable=0;points=[];autosize=1;strokeColor=none;fillColor=none;" vertex="1" parent="1">
          <mxGeometry x="620" y="560" width="90" height="30" as="geometry" />
        </mxCell>
        <mxCell id="CRQ6YsXnufIw0pY0c4kj-5" value="VOID" style="ellipse;whiteSpace=wrap;html=1;aspect=fixed;" vertex="1" parent="1">
          <mxGeometry x="330" y="40" width="80" height="80" as="geometry" />
        </mxCell>
        <mxCell id="CRQ6YsXnufIw0pY0c4kj-6" value="???????" style="text;html=1;align=center;verticalAlign=middle;resizable=0;points=[];autosize=1;strokeColor=none;fillColor=none;rotation=0;" vertex="1" parent="1">
          <mxGeometry x="349" y="210" width="70" height="30" as="geometry" />
        </mxCell>
        <mxCell id="CRQ6YsXnufIw0pY0c4kj-7" value="" style="endArrow=none;dashed=1;html=1;rounded=0;" edge="1" parent="1">
          <mxGeometry width="50" height="50" relative="1" as="geometry">
            <mxPoint y="440" as="sourcePoint" />
            <mxPoint x="830" y="440" as="targetPoint" />
          </mxGeometry>
        </mxCell>
        <mxCell id="CRQ6YsXnufIw0pY0c4kj-8" value="" style="endArrow=none;dashed=1;html=1;rounded=0;" edge="1" parent="1">
          <mxGeometry width="50" height="50" relative="1" as="geometry">
            <mxPoint y="560" as="sourcePoint" />
            <mxPoint x="820" y="560" as="targetPoint" />
            <Array as="points">
              <mxPoint x="420" y="560" />
            </Array>
          </mxGeometry>
        </mxCell>
      </root>
    </mxGraphModel>
  </diagram>
</mxfile>
